<svg xmlns="http://www.w3.org/2000/svg" viewBox="0 0 48 48" id="female-student"><path fill="#0ca0f2" d="m19,31l-8.639,3.6c-2.135.89-3.781,2.66-4.513,4.855l-.971,2.913c-.432,1.295.532,2.632,1.897,2.632h34.45c1.365,0,2.329-1.337,1.897-2.632l-.971-2.913c-.732-2.195-2.377-3.965-4.513-4.855l-8.639-3.6h-10Z"></path><path fill="#f6a28d" d="m29,28v4.46c0,4.243-1.686,8.313-4.686,11.314l-.314.314v-.088s-.314-.314-.314-.314c-3.001-3.001-4.686-7.07-4.686-11.314v-4.373h10Z"></path><path fill="#0075d3" d="m20.117,38.214c.797,2.031,1.997,3.9,3.569,5.473l.314.314v.088l.314-.314c1.596-1.596,2.807-3.5,3.603-5.566-2.576.374-5.223.376-7.799.005Z"></path><path fill="#0d3b8d" d="m30.7,31.56l7.3-1.56c-1.68-2.1-2.66-4.62-2.86-7.23l.58-5.23.19-.8c.21-.89.31-1.8.31-2.7,0-2.17-.59-4.32-1.72-6.21-2.17-3.62-6.08-5.83-10.29-5.83h-.42c-2.11,0-4.13.55-5.91,1.56-1.78,1-3.3,2.46-4.38,4.27-1.6,2.67-2.11,5.87-1.41,8.91l.19.8.58,5.23c-.2,2.61-1.18,5.13-2.86,7.23l7.3,1.56c.08.02,13.32.02,13.4,0Z"></path><path fill="#00286f" d="m35.278,21.525c-2.02,1.546-4.538,2.475-7.278,2.475-6.627,0-12-5.373-12-12,0-3.949,1.916-7.441,4.859-9.628-1.044.264-2.046.658-2.979,1.188-1.78,1-3.3,2.46-4.38,4.27-1.6,2.67-2.11,5.87-1.41,8.91l.19.8.58,5.23c-.2,2.61-1.18,5.13-2.86,7.23l7.3,1.56c.08.02,13.32.02,13.4,0l7.3-1.56c-1.68-2.1-2.66-4.62-2.86-7.23l.138-1.245Z"></path><path fill="#ffcdb4" d="m34,17h0c-1.953-.651-3.662-1.883-4.897-3.53l-1.103-1.47h0c-1.953,1.953-4.456,3.265-7.174,3.759l-6.826,1.241c-1.66,0-3,1.34-3,3s1.34,3,3,3c.22,0,.44-.03.65-.08l.62,2.81c.47,2.09,1.75,3.91,3.57,5.05l3.04,1.89c1.3.82,2.94.82,4.24,0l3.04-1.89c1.82-1.14,3.1-2.96,3.57-5.05l.62-2.81c.21.05.43.08.65.08,1.66,0,3-1.34,3-3s-1.34-3-3-3Z"></path><path fill="#f6a28d" d="m23.986,30.388l-3.338-3.004c-1.686-1.517-2.648-3.678-2.648-5.946v-5.164l-4,.727c-1.66,0-3,1.34-3,3s1.34,3,3,3c.22,0,.44-.03.65-.08l.62,2.81c.47,2.09,1.75,3.91,3.57,5.05l3.04,1.89c1.3.82,2.94.82,4.24,0l1.28-.796c-1.231-.123-2.433-.603-3.414-1.486Z"></path><path fill="#0075d3" d="m10.44,43.602l.337-3.368c.144-1.44.804-2.78,1.858-3.772l5.356-5.041-7.63,3.179c-2.135.89-3.781,2.66-4.513,4.855l-.971,2.913c-.432,1.295.532,2.632,1.897,2.632h3.791c-.116-.445-.175-.911-.126-1.398Z"></path><path fill="#08105e" d="m44.071,42.051l-.971-2.914c-.823-2.47-2.674-4.46-5.077-5.461l-4.218-1.758,4.404-.941c.339-.073.616-.315.733-.642.117-.326.056-.69-.161-.96-1.409-1.761-2.287-3.844-2.572-6.053,1.076-.718,1.791-1.935,1.791-3.323,0-1.097-.448-2.088-1.165-2.811.229-.978.355-1.98.355-2.999,0-7.273-5.917-13.19-13.19-13.19s-13.19,5.917-13.19,13.19c0,1.018.126,2.018.354,2.995-.718.724-1.164,1.717-1.164,2.815,0,1.388.715,2.605,1.791,3.323-.285,2.209-1.162,4.291-2.572,6.053-.217.271-.278.634-.161.96.117.327.394.569.733.642l4.404.941-4.218,1.757c-2.403,1.001-4.253,2.992-5.077,5.461l-.971,2.914c-.309.926-.158,1.911.413,2.703.57.792,1.458,1.246,2.434,1.246h34.45c.976,0,1.863-.454,2.434-1.246.571-.792.721-1.777.413-2.703Zm-20.032.538c-.928-.995-1.716-2.087-2.333-3.264.76.106,1.526.166,2.293.166.782,0,1.563-.062,2.338-.173-.607,1.178-1.381,2.273-2.298,3.271Zm-12.04-22.589c0-1.103.897-2,2-2,.06,0,.12-.005.179-.016l6.826-1.241c2.554-.464,4.904-1.583,6.86-3.256l.438.584c1.364,1.818,3.224,3.159,5.381,3.878.102.034.209.051.316.051,1.103,0,2,.897,2,2s-.897,2-2,2c-.131,0-.271-.018-.417-.053-.263-.062-.536-.017-.764.125-.227.143-.388.37-.446.632l-.619,2.806c-.417,1.851-1.526,3.421-3.122,4.42l-3.046,1.894c-.979.616-2.194.617-3.179-.003l-3.037-1.889c-1.599-1.001-2.708-2.571-3.124-4.417l-.62-2.81c-.058-.262-.219-.49-.446-.632-.161-.101-.345-.152-.531-.152-.078,0-.156.009-.233.027-.146.035-.286.053-.417.053-1.103,0-2-.897-2-2Zm15.258,17.107c-2.128.492-4.353.493-6.482.006-.469-1.413-.729-2.899-.761-4.425l1.331.828c.819.517,1.738.775,2.655.775s1.832-.257,2.646-.771l1.341-.834c-.022,1.524-.273,3.01-.731,4.422Zm9.044-7.767l-5.105,1.091c1.237-1.214,2.125-2.774,2.51-4.486l.43-1.948c.056-.002.108-.018.163-.022.302,1.907.966,3.73,2.002,5.364ZM12.81,14.19c0-6.17,5.02-11.19,11.19-11.19s11.19,5.02,11.19,11.19c0,.658-.064,1.307-.176,1.946-.27-.071-.548-.12-.836-.132-1.71-.601-3.187-1.682-4.275-3.134l-1.103-1.47c-.174-.232-.44-.377-.729-.397-.283-.018-.573.085-.778.291-1.818,1.818-4.116,3.022-6.646,3.482l-6.744,1.226c-.318.008-.622.062-.917.14-.113-.64-.176-1.291-.176-1.951Zm.891,9.786c.055.004.107.02.163.022l.431,1.952c.384,1.708,1.272,3.268,2.509,4.482l-5.106-1.091c1.037-1.635,1.701-3.457,2.002-5.364Zm-7.737,19.609c-.19-.264-.24-.592-.137-.9l.971-2.914c.64-1.921,2.08-3.469,3.949-4.248l7.26-3.025c.031,4.316,1.67,8.37,4.616,11.503H6.775c-.325,0-.621-.151-.812-.416Zm36.073,0c-.19.264-.486.416-.812.416h-15.768c2.915-3.142,4.532-7.192,4.541-11.501l7.256,3.024c1.869.778,3.309,2.327,3.949,4.248l.971,2.914c.103.309.053.637-.137.9Z"></path></svg>